<svg xmlns="http://www.w3.org/2000/svg" width="192" height="24"><path fill="#222" d="M85.80 18.62L85.80 16.97L81.01 16.97L83.25 13.37L82.42 13.37L82.56 13.12L83.39 13.12L84.54 11.21L85.30 11.21L85.91 10.20L85.15 10.20L85.69 9.37L85.73 9.26C86.20 8.44 86.31 7.50 86.09 6.64L85.44 6.64C85.41 6.46 85.33 6.31 85.26 6.13L85.95 6.13C85.87 5.92 85.77 5.74 85.66 5.52C85.59 5.38 85.48 5.23 85.37 5.12L86.31 5.12C86.23 5.02 86.16 4.94 86.09 4.87L85.15 4.87C84.47 4.12 83.46 3.68 82.42 3.68L76.87 3.68L76.87 4.87L77.81 4.87L77.81 5.12L76.87 5.12L76.87 6.13L76.19 6.13L76.19 6.64L76.87 6.64L76.87 7.68L82.06 7.68L80.47 10.20L81.23 10.20L80.62 11.21L79.86 11.21L78.71 13.12L77.88 13.12L77.74 13.37L78.53 13.37L76.33 16.97L76.33 18.62L76.98 18.62L76.98 20.03L76.33 20.03L76.33 20.96L85.80 20.96L85.80 20.03L86.45 20.03L86.45 18.62Z"/><path fill="#333" d="M112.95 18.62L112.95 16.97L108.16 16.97L110.39 13.37L109.56 13.37L109.71 13.12L110.53 13.12L111.69 11.21L112.44 11.21L113.05 10.20L112.30 10.20L112.84 9.37L112.87 9.26C113.34 8.44 113.45 7.50 113.23 6.64L112.59 6.64C112.55 6.46 112.48 6.31 112.41 6.13L113.09 6.13C113.02 5.92 112.91 5.74 112.80 5.52C112.73 5.38 112.62 5.23 112.51 5.12L113.45 5.12C113.38 5.02 113.31 4.94 113.23 4.87L112.30 4.87C111.61 4.12 110.61 3.68 109.56 3.68L104.02 3.68L104.02 4.87L104.95 4.87L104.95 5.12L104.02 5.12L104.02 6.13L103.33 6.13L103.33 6.64L104.02 6.64L104.02 7.68L109.20 7.68L107.62 10.20L108.37 10.20L107.76 11.21L107.01 11.21L105.85 13.12L105.03 13.12L104.88 13.37L105.67 13.37L103.48 16.97L103.48 18.62L104.13 18.62L104.13 20.03L103.48 20.03L103.48 20.96L112.95 20.96L112.95 20.03L113.59 20.03L113.59 18.62Z"/><path d="M12 6 C104 18,102 12,178 12" stroke="#666" fill="none"/><path d="M18 12 C90 12,82 6,180 18" stroke="#888" fill="none"/><path d="M13 18 C100 6,104 18,177 6" stroke="#777" fill="none"/><path fill="#333" d="M141.35 15.06C141.35 14.45 141.28 13.91 141.13 13.37L140.30 13.37C140.30 13.26 140.27 13.19 140.27 13.12L141.06 13.12C140.84 12.40 140.56 11.78 140.12 11.21L140.88 11.21C140.70 10.99 140.56 10.78 140.38 10.60C140.45 10.45 140.56 10.34 140.63 10.20L139.87 10.20C140.38 9.37 140.66 8.40 140.66 7.36C140.66 7.10 140.63 6.89 140.59 6.64L139.94 6.64C139.91 6.46 139.91 6.31 139.84 6.13L140.52 6.13C140.45 5.77 140.34 5.45 140.20 5.12L141.10 5.12C141.06 5.05 141.02 4.94 140.99 4.87L140.05 4.87C139.22 3.25 137.64 2.14 135.80 2.14C133.97 2.14 132.38 3.25 131.56 4.87L132.49 4.87C132.46 4.94 132.42 5.05 132.38 5.12L131.45 5.12C131.30 5.45 131.20 5.77 131.09 6.13L130.44 6.13C130.40 6.31 130.37 6.46 130.33 6.64L131.02 6.64C130.98 6.89 130.94 7.10 130.94 7.36C130.94 8.40 131.23 9.37 131.74 10.20L132.49 10.20C132.49 10.24 132.53 10.27 132.56 10.31C132.28 10.60 132.02 10.88 131.77 11.21L131.02 11.21C130.62 11.78 130.30 12.40 130.08 13.12L129.29 13.12C129.25 13.19 129.22 13.26 129.22 13.37L130.01 13.37C129.90 13.91 129.79 14.45 129.79 15.06C129.79 16.39 130.19 17.62 130.87 18.62L131.52 18.62C131.88 19.16 132.31 19.63 132.78 20.03L132.10 20.03C133.07 20.82 134.29 21.29 135.59 21.29C136.88 21.29 138.07 20.82 139.04 20.03L139.73 20.03C140.20 19.63 140.63 19.16 140.95 18.62L140.30 18.62C140.95 17.62 141.35 16.39 141.35 15.06ZM135.12 6.13L135.16 6.13C135.41 6.17 135.66 6.35 135.80 6.64L136.49 6.64C136.60 6.85 136.67 7.07 136.67 7.36C136.67 8.08 136.24 8.58 135.80 8.58C135.41 8.58 134.94 8.08 134.94 7.36C134.94 7.07 135.01 6.85 135.12 6.64L134.47 6.64C134.62 6.35 134.87 6.17 135.12 6.13ZM133.86 13.12L134.69 13.12C134.94 12.90 135.26 12.79 135.59 12.79C135.91 12.79 136.20 12.90 136.49 13.12L135.66 13.12C135.77 13.19 135.84 13.26 135.95 13.37L136.74 13.37C137.14 13.76 137.35 14.38 137.35 15.06C137.35 16.28 136.56 17.29 135.59 17.29C134.62 17.29 133.79 16.28 133.79 15.06C133.79 14.38 134.04 13.76 134.40 13.37L133.61 13.37C133.68 13.26 133.79 13.19 133.86 13.12Z"/><path fill="#333" d="M60.14 14.66C60.14 14.23 60.10 13.76 59.99 13.37L59.20 13.37C59.16 13.26 59.16 13.19 59.13 13.12L59.96 13.12C59.78 12.43 59.52 11.78 59.16 11.21L59.92 11.21C59.70 10.85 59.42 10.52 59.13 10.20L58.41 10.20C57.36 9.08 55.92 8.40 54.34 8.40C54.16 8.40 53.94 8.44 53.73 8.44C53.94 7.86 54.16 7.28 54.45 6.64L53.80 6.64C53.87 6.49 53.94 6.31 54.02 6.13L54.70 6.13C54.84 5.81 55.02 5.48 55.24 5.12L56.14 5.12C56.21 5.05 56.25 4.94 56.28 4.87L55.35 4.87C55.56 4.48 55.82 4.08 56.07 3.68L52.65 1.60C51.96 2.71 51.39 3.83 50.88 4.87L51.82 4.87C51.78 4.94 51.75 5.05 51.71 5.12L50.78 5.12C50.63 5.48 50.49 5.81 50.34 6.13L49.66 6.13C49.59 6.31 49.52 6.49 49.44 6.64L50.13 6.64C49.62 7.93 49.30 9.16 49.05 10.20L49.80 10.20C49.73 10.56 49.66 10.88 49.59 11.21L48.87 11.21C48.72 11.93 48.65 12.58 48.62 13.12L47.79 13.12C47.79 13.19 47.79 13.30 47.79 13.37L48.58 13.37C48.54 14.41 48.58 15.02 48.58 15.13L48.62 15.10C48.69 16.46 49.16 17.65 49.91 18.62L50.56 18.62C50.99 19.20 51.50 19.67 52.07 20.03L51.42 20.03C52.29 20.57 53.30 20.93 54.38 20.93C55.42 20.93 56.43 20.57 57.29 20.03L57.98 20.03C58.55 19.67 59.06 19.20 59.49 18.62L58.80 18.62C59.63 17.54 60.14 16.18 60.14 14.66ZM54.99 13.37L55.82 13.37C56.00 13.73 56.14 14.20 56.14 14.66C56.14 15.89 55.31 16.93 54.34 16.93C53.40 16.93 52.58 15.89 52.58 14.66C52.58 14.20 52.72 13.73 52.90 13.37L52.11 13.37C52.14 13.26 52.22 13.19 52.25 13.12L53.08 13.12C53.40 12.68 53.87 12.40 54.34 12.40C54.84 12.40 55.31 12.68 55.64 13.12L54.81 13.12C54.88 13.19 54.92 13.26 54.99 13.37Z"/><path fill="#333" d="M168.80 4.87L167.86 4.87L167.86 3.68L165.67 3.68L163.87 3.72L163.87 3.79L163.72 3.68L159.62 3.68L158.97 4.87L159.87 4.87L159.73 5.12L158.83 5.12L158.21 6.13L157.57 6.13L157.28 6.64L157.93 6.64L156.67 8.87L156.56 9.08C156.38 9.44 156.31 9.80 156.27 10.20L156.99 10.20C156.95 10.52 156.95 10.88 157.03 11.21L156.27 11.21C156.34 11.78 156.56 12.36 156.88 12.86C156.95 12.94 157.03 13.01 157.06 13.12L156.27 13.12C156.34 13.19 156.41 13.30 156.49 13.37L157.28 13.37C158.03 14.16 159.08 14.66 160.23 14.66L163.94 14.66L163.94 18.62L164.62 18.62L164.62 20.03L163.97 20.03L163.97 20.89L167.97 20.89L167.93 20.03L168.62 20.03L168.62 18.62L167.93 18.62L167.93 13.37L167.11 13.37L167.11 13.12L167.93 13.12L167.90 11.21L168.65 11.21L168.65 10.20L167.90 10.20L167.90 6.64L167.21 6.64L167.21 6.13L167.90 6.13L167.86 5.12L168.80 5.12ZM160.99 10.67L161.24 10.20L160.48 10.20L162.53 6.64L161.89 6.64L162.17 6.13L162.82 6.13L163.43 5.12L163.90 5.12L163.90 6.13L163.22 6.13L163.22 6.64L163.90 6.64L163.90 10.20L164.66 10.20L164.66 10.67ZM164.33 5.12L164.48 4.87L164.80 4.87L164.80 5.12Z"/><path fill="#444" d="M32.99 14.66C32.99 14.23 32.96 13.76 32.85 13.37L32.06 13.37C32.02 13.26 32.02 13.19 31.98 13.12L32.81 13.12C32.63 12.43 32.38 11.78 32.02 11.21L32.78 11.21C32.56 10.85 32.27 10.52 31.98 10.20L31.26 10.20C30.22 9.08 28.78 8.40 27.20 8.40C27.02 8.40 26.80 8.44 26.58 8.44C26.80 7.86 27.02 7.28 27.30 6.64L26.66 6.64C26.73 6.49 26.80 6.31 26.87 6.13L27.56 6.13C27.70 5.81 27.88 5.48 28.10 5.12L29.00 5.12C29.07 5.05 29.10 4.94 29.14 4.87L28.20 4.87C28.42 4.48 28.67 4.08 28.92 3.68L25.50 1.60C24.82 2.71 24.24 3.83 23.74 4.87L24.68 4.87C24.64 4.94 24.60 5.05 24.57 5.12L23.63 5.12C23.49 5.48 23.34 5.81 23.20 6.13L22.52 6.13C22.44 6.31 22.37 6.49 22.30 6.64L22.98 6.64C22.48 7.93 22.16 9.16 21.90 10.20L22.66 10.20C22.59 10.56 22.52 10.88 22.44 11.21L21.72 11.21C21.58 11.93 21.51 12.58 21.47 13.12L20.64 13.12C20.64 13.19 20.64 13.30 20.64 13.37L21.44 13.37C21.40 14.41 21.44 15.02 21.44 15.13L21.47 15.10C21.54 16.46 22.01 17.65 22.77 18.62L23.42 18.62C23.85 19.20 24.35 19.67 24.93 20.03L24.28 20.03C25.14 20.57 26.15 20.93 27.23 20.93C28.28 20.93 29.28 20.57 30.15 20.03L30.83 20.03C31.41 19.67 31.91 19.20 32.34 18.62L31.66 18.62C32.49 17.54 32.99 16.18 32.99 14.66ZM27.84 13.37L28.67 13.37C28.85 13.73 29.00 14.20 29.00 14.66C29.00 15.89 28.17 16.93 27.20 16.93C26.26 16.93 25.43 15.89 25.43 14.66C25.43 14.20 25.58 13.73 25.76 13.37L24.96 13.37C25.00 13.26 25.07 13.19 25.11 13.12L25.94 13.12C26.26 12.68 26.73 12.40 27.20 12.40C27.70 12.40 28.17 12.68 28.49 13.12L27.66 13.12C27.74 13.19 27.77 13.26 27.84 13.37Z"/></svg>